<svg width="76" height="76" viewBox="0 0 76 76" fill="none" xmlns="http://www.w3.org/2000/svg">
<mask id="mask0_25_229" style="mask-type:luminance" maskUnits="userSpaceOnUse" x="13" y="4" width="50" height="68">
<path d="M13.7813 4.66133H62.2187V71.3387H13.7813V4.66133Z" fill="white"/>
</mask>
<g mask="url(#mask0_25_229)">
<mask id="mask1_25_229" style="mask-type:luminance" maskUnits="userSpaceOnUse" x="13" y="4" width="50" height="68">
<path d="M18.8891 39.8446C18.5369 39.8446 18.1925 39.7401 17.8996 39.5445C17.6066 39.349 17.3786 39.0703 17.2433 38.745C17.1087 38.4196 17.0731 38.061 17.1419 37.7158C17.2108 37.3706 17.3802 37.0532 17.6296 36.8038C17.879 36.5544 18.1964 36.385 18.5416 36.3161C18.8876 36.2472 19.2454 36.2829 19.5708 36.4175C19.8961 36.5528 20.1748 36.7808 20.3704 37.0737C20.5659 37.3667 20.6704 37.711 20.6704 38.0633C20.6704 38.536 20.4828 38.9888 20.1487 39.3229C19.8146 39.657 19.3618 39.8446 18.8891 39.8446ZM57.1108 39.8446C57.4631 39.8446 57.8075 39.7401 58.1004 39.5445C58.3933 39.349 58.6213 39.0703 58.7567 38.745C58.8913 38.4196 58.9269 38.061 58.858 37.7158C58.7891 37.3706 58.6197 37.0532 58.3704 36.8038C58.121 36.5544 57.8035 36.385 57.4584 36.3161C57.1132 36.2472 56.7546 36.2829 56.4292 36.4175C56.1038 36.5528 55.8251 36.7808 55.6296 37.0737C55.4341 37.3667 55.3296 37.711 55.3296 38.0633C55.3296 38.536 55.5172 38.9888 55.8513 39.3229C56.1854 39.657 56.6382 39.8446 57.1108 39.8446ZM22.8237 45.5842C23.8386 45.5818 24.8456 45.4052 25.8004 45.0617C25.65 44.6342 25.5075 44.2067 25.365 43.7712C24.2899 43.6367 23.2615 43.2487 22.3654 42.6392C21.4692 42.0296 20.7314 41.215 20.2112 40.2642C19.8336 40.4937 19.4021 40.6188 18.9604 40.6283C18.5986 41.8871 18.4719 43.2028 18.5883 44.5075C19.8866 45.2176 21.3441 45.5873 22.8237 45.5842ZM25.08 42.9242C24.9691 42.5996 24.8662 42.2671 24.7554 41.9346C24.0112 39.6862 23.2512 37.4142 22.3804 35.2292C22.1754 35.9488 21.8001 36.6082 21.2879 37.1529C21.3987 37.4442 21.4581 37.7522 21.4621 38.0633C21.4597 38.6848 21.2317 39.2833 20.8208 39.7496C21.2507 40.5618 21.8555 41.268 22.5926 41.8166C23.3296 42.366 24.1791 42.7445 25.08 42.9242ZM53.6196 35.2292C52.7487 37.4142 51.9887 39.6862 51.2446 41.9346C51.1337 42.2671 51.0308 42.5996 50.92 42.9242C51.8201 42.7452 52.6696 42.3684 53.4058 41.8206C54.1429 41.2727 54.7485 40.5682 55.1791 39.7575C54.7683 39.292 54.5403 38.6927 54.5379 38.0712C54.5419 37.7601 54.6012 37.4514 54.7121 37.1608C54.1983 36.6138 53.8238 35.9512 53.6196 35.2292ZM50.6666 43.7712C50.5241 44.2067 50.3816 44.6342 50.2312 45.0617C51.4045 45.4844 52.6537 45.6538 53.8966 45.558C55.1396 45.4622 56.3484 45.1044 57.4433 44.5075C57.5589 43.2028 57.433 41.8871 57.0712 40.6283C56.6295 40.6188 56.198 40.4937 55.8204 40.2642C55.3003 41.215 54.5624 42.0296 53.6663 42.6392C52.7701 43.2487 51.7417 43.6367 50.6666 43.7712ZM38 52.4242C41.4912 47.4208 43.0271 41.5546 44.5154 35.8783C45.695 31.3737 46.8904 26.7108 49.115 22.5862C44.836 18.7965 41.097 14.4384 38 9.63458C34.9133 14.4368 31.1837 18.7942 26.9166 22.5862C29.1175 26.7108 30.3366 31.3737 31.5162 35.8783C32.9729 41.5546 34.5087 47.4208 38 52.4242ZM19.3879 27.835C19.1583 27.5183 18.9446 27.2017 18.7071 26.9008C24.3034 18.81 30.7729 11.3604 38 4.68666C45.2279 11.366 51.6974 18.8203 57.2929 26.9167C57.0554 27.2175 56.8416 27.5342 56.6121 27.8508C56.5646 27.8888 56.5266 27.9379 56.5012 27.9933C53.7304 31.9517 52.0837 36.8758 50.4925 41.6892C47.8483 49.7167 45.3466 57.3088 38 59.2642C30.6533 57.3088 28.1516 49.7167 25.5075 41.6892C23.9241 36.8758 22.2696 31.9279 19.4987 27.9933C19.4758 27.9324 19.4378 27.8777 19.3879 27.835ZM26.0379 22.6892C28.2862 26.7979 29.4658 31.3025 30.7166 36.0842C32.3 41.9979 33.8833 48.1175 37.6833 53.3425C37.7205 53.3916 37.768 53.432 37.8226 53.4589C37.8781 53.4866 37.9382 53.5008 38 53.5008C38.0617 53.5008 38.1219 53.4866 38.1773 53.4589C38.2319 53.432 38.2794 53.3916 38.3166 53.3425C42.1246 48.1175 43.7316 41.9979 45.2833 36.0842C46.5341 31.3342 47.7137 26.7979 49.9621 22.6892C50.0143 22.6068 50.0349 22.5079 50.0191 22.4113C50.0024 22.3147 49.9518 22.2276 49.875 22.1667C45.406 18.2535 41.5189 13.7212 38.3325 8.70833C38.2953 8.65449 38.2454 8.61016 38.1876 8.58008C38.1298 8.5492 38.0657 8.53337 38 8.53337C37.9343 8.53337 37.8701 8.5492 37.8124 8.58008C37.7546 8.61016 37.7047 8.65449 37.6675 8.70833C34.481 13.7212 30.5939 18.2535 26.125 22.1667C26.0482 22.2276 25.9975 22.3147 25.9809 22.4113C25.9651 22.5079 25.9856 22.6068 26.0379 22.6892ZM35.7437 63.0642C37.2194 63.4758 38.7806 63.4758 40.2562 63.0642C45.5129 61.5917 51.4108 59.1058 55.3612 52.155C55.8093 50.1394 55.9376 48.0668 55.7412 46.0117C54.906 46.2436 54.0431 46.3632 53.1762 46.3679C52.0719 46.3663 50.9762 46.174 49.9383 45.7979C47.5633 52.535 44.6975 58.3458 38.1029 60.0479H37.905C31.3025 58.3458 28.405 52.535 26.03 45.7979C24.9921 46.174 23.8964 46.3663 22.7921 46.3679C21.9252 46.3632 21.0623 46.2436 20.2271 46.0117C20.0307 48.0668 20.159 50.1402 20.6071 52.155C24.5891 59.1533 30.4871 61.5996 35.7437 63.0721V63.0642ZM16.3162 38.0633C16.3162 37.5202 16.488 36.9914 16.8086 36.5528C17.1285 36.115 17.5805 35.7897 18.0975 35.625C17.7808 34.945 17.3311 34.3354 16.7754 33.8327C16.2189 33.3292 15.5673 32.9428 14.8596 32.6958C14.2452 33.9253 13.923 35.2798 13.9175 36.6542C13.9206 37.3809 14.0133 38.1037 14.1946 38.8075C14.839 38.4148 15.5649 38.1742 16.3162 38.1029V38.0633ZM57.9025 35.625C58.4186 35.7897 58.8691 36.1135 59.1889 36.5497C59.5096 36.9867 59.6821 37.5139 59.6837 38.0554C59.6877 38.076 59.6877 38.0982 59.6837 38.1187C60.4382 38.1876 61.1665 38.4283 61.8133 38.8233C61.9946 38.1195 62.0872 37.3967 62.0904 36.67C62.0849 35.2957 61.7626 33.9411 61.1483 32.7117C60.4406 32.9563 59.7882 33.3395 59.2309 33.8398C58.6736 34.3401 58.2215 34.9473 57.9025 35.625ZM57 28.6346C55.8766 30.3082 54.9195 32.087 54.1421 33.9467C54.184 33.9831 54.2173 34.0282 54.2402 34.0789C54.264 34.1295 54.2759 34.1842 54.2766 34.2396C54.2988 35.0439 54.6044 35.8158 55.1396 36.4167C55.3786 36.1261 55.6779 35.8918 56.0175 35.7295C56.3564 35.5664 56.7269 35.4793 57.1029 35.4746C57.4425 34.6766 57.9413 33.9554 58.5691 33.3569C59.1961 32.7584 59.9394 32.2937 60.7525 31.9912C59.8484 30.537 58.5461 29.3716 57 28.6346ZM58.0608 45.0458C58.0204 45.0799 57.9753 45.106 57.9262 45.125C57.4758 45.3783 57.0039 45.5929 56.5171 45.7662C56.7474 47.99 56.6113 50.2368 56.1133 52.4162C56.1165 52.4479 56.1165 52.4796 56.1133 52.5112C51.9808 59.7787 45.9166 62.3121 40.47 63.8321C38.8542 64.2857 37.145 64.2857 35.53 63.8321C30.0833 62.3121 24.0191 59.7787 19.9262 52.5112C19.9096 52.4812 19.8961 52.4495 19.8866 52.4162C19.3887 50.2368 19.2525 47.99 19.4829 45.7662C18.996 45.5929 18.5242 45.3783 18.0737 45.125C18.0246 45.106 17.9795 45.0799 17.9391 45.0458L17.6779 44.8875C16.8649 46.907 16.3883 49.0469 16.2687 51.2208C16.1904 52.2088 16.336 53.2024 16.6962 54.1262C20.4091 63.745 27.3837 69.3737 38 71.3133C48.6162 69.3737 55.5908 63.745 59.3037 54.0946C59.6639 53.1707 59.8096 52.1772 59.7312 51.1892C59.6117 49.0152 59.1351 46.8754 58.3221 44.8558L58.0608 45.0458ZM57.8312 40.5254C58.1384 41.6543 58.2738 42.8236 58.235 43.9929C59.7866 42.9131 60.9567 41.3693 61.5758 39.5833C60.9654 39.1788 60.2632 38.9334 59.5333 38.8708C59.4027 39.2627 59.1802 39.6174 58.8841 39.9055C58.5873 40.1937 58.2263 40.4059 57.8312 40.5254ZM18.1687 40.5254C17.7816 40.4122 17.4261 40.2095 17.1309 39.9348C16.8348 39.6601 16.6076 39.3205 16.4666 38.9421C15.7375 39.0086 15.0361 39.2532 14.4241 39.6546C15.0496 41.4295 16.2181 42.9614 17.765 44.0325C17.7349 42.8482 17.8845 41.6654 18.2083 40.5254H18.1687ZM18.8971 35.4904C19.2715 35.4936 19.6412 35.5775 19.9809 35.7382C20.3197 35.8981 20.6197 36.1293 20.8604 36.4167C21.3995 35.811 21.7051 35.0344 21.7233 34.2237C21.7241 34.1683 21.736 34.1137 21.7597 34.063C21.7827 34.0124 21.8159 33.9672 21.8579 33.9308C21.0797 32.0767 20.1226 30.3034 19 28.6346C17.4523 29.3764 16.1492 30.5465 15.2475 32.0071C16.0605 32.3095 16.8039 32.7734 17.4309 33.3727C18.0587 33.9712 18.5574 34.6924 18.8971 35.4904Z" fill="white"/>
</mask>
<g mask="url(#mask1_25_229)">
<path d="M13.9175 4.68666V71.3133H62.0904V4.68666H13.9175Z" fill="url(#paint0_linear_25_229)"/>
</g>
</g>
<defs>
<linearGradient id="paint0_linear_25_229" x1="38.0039" y1="4.68664" x2="38.0039" y2="71.3133" gradientUnits="userSpaceOnUse">
<stop stop-color="#43CEA2"/>
<stop offset="0.0078125" stop-color="#43CEA2"/>
<stop offset="0.015625" stop-color="#43CDA2"/>
<stop offset="0.0234375" stop-color="#42CCA2"/>
<stop offset="0.03125" stop-color="#42CBA2"/>
<stop offset="0.0390625" stop-color="#42CAA2"/>
<stop offset="0.046875" stop-color="#41C9A2"/>
<stop offset="0.0546875" stop-color="#41C8A2"/>
<stop offset="0.0625" stop-color="#41C7A2"/>
<stop offset="0.0703125" stop-color="#40C6A2"/>
<stop offset="0.078125" stop-color="#40C5A2"/>
<stop offset="0.0859375" stop-color="#40C5A2"/>
<stop offset="0.09375" stop-color="#3FC4A1"/>
<stop offset="0.101562" stop-color="#3FC3A1"/>
<stop offset="0.109375" stop-color="#3FC2A1"/>
<stop offset="0.117187" stop-color="#3EC1A1"/>
<stop offset="0.125" stop-color="#3EC0A1"/>
<stop offset="0.132812" stop-color="#3EBFA1"/>
<stop offset="0.140625" stop-color="#3DBEA1"/>
<stop offset="0.148438" stop-color="#3DBDA1"/>
<stop offset="0.15625" stop-color="#3CBCA1"/>
<stop offset="0.164062" stop-color="#3CBBA1"/>
<stop offset="0.171875" stop-color="#3CBBA1"/>
<stop offset="0.179687" stop-color="#3BBAA1"/>
<stop offset="0.1875" stop-color="#3BB9A1"/>
<stop offset="0.195312" stop-color="#3BB8A1"/>
<stop offset="0.203125" stop-color="#3AB7A1"/>
<stop offset="0.210938" stop-color="#3AB6A1"/>
<stop offset="0.21875" stop-color="#3AB5A1"/>
<stop offset="0.226562" stop-color="#39B4A1"/>
<stop offset="0.234375" stop-color="#39B3A1"/>
<stop offset="0.242187" stop-color="#39B2A1"/>
<stop offset="0.25" stop-color="#38B1A1"/>
<stop offset="0.257812" stop-color="#38B1A1"/>
<stop offset="0.265625" stop-color="#38B0A1"/>
<stop offset="0.273437" stop-color="#37AFA1"/>
<stop offset="0.28125" stop-color="#37AEA1"/>
<stop offset="0.289062" stop-color="#37ADA1"/>
<stop offset="0.296875" stop-color="#36ACA1"/>
<stop offset="0.304687" stop-color="#36ABA0"/>
<stop offset="0.3125" stop-color="#36AAA0"/>
<stop offset="0.320312" stop-color="#35A9A0"/>
<stop offset="0.328125" stop-color="#35A8A0"/>
<stop offset="0.335937" stop-color="#35A8A0"/>
<stop offset="0.34375" stop-color="#34A7A0"/>
<stop offset="0.351562" stop-color="#34A6A0"/>
<stop offset="0.359375" stop-color="#34A5A0"/>
<stop offset="0.367188" stop-color="#33A4A0"/>
<stop offset="0.375" stop-color="#33A3A0"/>
<stop offset="0.382812" stop-color="#33A2A0"/>
<stop offset="0.390625" stop-color="#32A1A0"/>
<stop offset="0.398438" stop-color="#32A0A0"/>
<stop offset="0.40625" stop-color="#329FA0"/>
<stop offset="0.414063" stop-color="#319EA0"/>
<stop offset="0.421875" stop-color="#319EA0"/>
<stop offset="0.429688" stop-color="#319DA0"/>
<stop offset="0.4375" stop-color="#309CA0"/>
<stop offset="0.445313" stop-color="#309BA0"/>
<stop offset="0.453125" stop-color="#309AA0"/>
<stop offset="0.460938" stop-color="#2F99A0"/>
<stop offset="0.46875" stop-color="#2F98A0"/>
<stop offset="0.476563" stop-color="#2F97A0"/>
<stop offset="0.484375" stop-color="#2E96A0"/>
<stop offset="0.492188" stop-color="#2E95A0"/>
<stop offset="0.5" stop-color="#2E94A0"/>
<stop offset="0.507812" stop-color="#2D949F"/>
<stop offset="0.515625" stop-color="#2D939F"/>
<stop offset="0.523438" stop-color="#2D929F"/>
<stop offset="0.53125" stop-color="#2C919F"/>
<stop offset="0.539062" stop-color="#2C909F"/>
<stop offset="0.546875" stop-color="#2C8F9F"/>
<stop offset="0.554688" stop-color="#2B8E9F"/>
<stop offset="0.5625" stop-color="#2B8D9F"/>
<stop offset="0.570312" stop-color="#2B8C9F"/>
<stop offset="0.578125" stop-color="#2A8B9F"/>
<stop offset="0.585938" stop-color="#2A8B9F"/>
<stop offset="0.59375" stop-color="#2A8A9F"/>
<stop offset="0.601562" stop-color="#29899F"/>
<stop offset="0.609375" stop-color="#29889F"/>
<stop offset="0.617187" stop-color="#29879F"/>
<stop offset="0.625" stop-color="#28869F"/>
<stop offset="0.632812" stop-color="#28859F"/>
<stop offset="0.640625" stop-color="#28849F"/>
<stop offset="0.648438" stop-color="#27839F"/>
<stop offset="0.65625" stop-color="#27829F"/>
<stop offset="0.664062" stop-color="#27819F"/>
<stop offset="0.671875" stop-color="#26819F"/>
<stop offset="0.679687" stop-color="#26809F"/>
<stop offset="0.6875" stop-color="#267F9F"/>
<stop offset="0.695312" stop-color="#257E9F"/>
<stop offset="0.703125" stop-color="#257D9F"/>
<stop offset="0.710938" stop-color="#257C9E"/>
<stop offset="0.71875" stop-color="#247B9E"/>
<stop offset="0.726562" stop-color="#247A9E"/>
<stop offset="0.734375" stop-color="#24799E"/>
<stop offset="0.742188" stop-color="#23789E"/>
<stop offset="0.75" stop-color="#23779E"/>
<stop offset="0.757812" stop-color="#23779E"/>
<stop offset="0.765625" stop-color="#22769E"/>
<stop offset="0.773438" stop-color="#22759E"/>
<stop offset="0.78125" stop-color="#22749E"/>
<stop offset="0.789062" stop-color="#21739E"/>
<stop offset="0.796875" stop-color="#21729E"/>
<stop offset="0.804688" stop-color="#21719E"/>
<stop offset="0.8125" stop-color="#20709E"/>
<stop offset="0.820313" stop-color="#206F9E"/>
<stop offset="0.828125" stop-color="#206E9E"/>
<stop offset="0.835938" stop-color="#1F6E9E"/>
<stop offset="0.84375" stop-color="#1F6D9E"/>
<stop offset="0.851562" stop-color="#1F6C9E"/>
<stop offset="0.859375" stop-color="#1E6B9E"/>
<stop offset="0.867188" stop-color="#1E6A9E"/>
<stop offset="0.875" stop-color="#1E699E"/>
<stop offset="0.882813" stop-color="#1D689E"/>
<stop offset="0.890625" stop-color="#1D679E"/>
<stop offset="0.898438" stop-color="#1D669E"/>
<stop offset="0.90625" stop-color="#1C659E"/>
<stop offset="0.914062" stop-color="#1C649E"/>
<stop offset="0.921875" stop-color="#1C649D"/>
<stop offset="0.929688" stop-color="#1B639D"/>
<stop offset="0.9375" stop-color="#1B629D"/>
<stop offset="0.945312" stop-color="#1A619D"/>
<stop offset="0.953125" stop-color="#1A609D"/>
<stop offset="0.960938" stop-color="#1A5F9D"/>
<stop offset="0.96875" stop-color="#195E9D"/>
<stop offset="0.976562" stop-color="#195D9D"/>
<stop offset="0.984375" stop-color="#195C9D"/>
<stop offset="0.992188" stop-color="#185B9D"/>
<stop offset="1" stop-color="#185A9D"/>
</linearGradient>
</defs>
</svg>
