<svg width="145" height="37" viewBox="0 0 145 37" fill="none" xmlns="http://www.w3.org/2000/svg">
<g clip-path="url(#clip0_54_186)">
<mask id="mask0_54_186" style="mask-type:luminance" maskUnits="userSpaceOnUse" x="0" y="1" width="30" height="35">
<path d="M0.00549316 1.78403L29.7073 1.61408L29.9023 35.6961L0.200498 35.8661L0.00549316 1.78403Z" fill="white"/>
</mask>
<g mask="url(#mask0_54_186)">
<path d="M15.113 1.82229L22.2385 5.88252L21.9851 6.32933L22.2403 5.88064C22.2507 5.88714 22.261 5.89365 22.2705 5.90015L29.4091 9.96688L29.41 9.96593C29.5784 10.0615 29.6713 10.2373 29.6704 10.4182L29.7648 26.9136C29.766 27.118 29.6489 27.2949 29.4768 27.3793L22.3871 31.5265L22.1267 31.0827L22.3871 31.5284C22.3731 31.536 22.359 31.5436 22.345 31.5502L15.2637 35.6927L15.2656 35.6945C15.0852 35.7997 14.8676 35.784 14.7076 35.6715L7.58213 31.6113L7.83554 31.1644L7.58027 31.6131C7.56992 31.6066 7.55957 31.6011 7.55016 31.5946L0.411541 27.5269L0.410609 27.5278C0.242234 27.4322 0.149345 27.2565 0.15019 27.0765L0.0558046 10.5802C0.0546405 10.3767 0.171764 10.1998 0.343792 10.1144L7.43353 5.96723L7.69391 6.4111L7.43352 5.96536C7.44754 5.95778 7.46156 5.95019 7.47559 5.94355L14.5569 1.80109L14.556 1.79922C14.7354 1.69412 14.953 1.70976 15.113 1.82229ZM21.7307 6.7752L14.8197 2.8375L7.99446 6.83035C7.98138 6.83887 7.96831 6.84832 7.95429 6.8559L7.95335 6.85497L1.08881 10.8705L1.17984 26.7809L8.05884 30.7C8.07012 30.7056 8.08047 30.7111 8.09081 30.7167L8.08988 30.7176L8.09082 30.7186L8.08989 30.7186L15.0018 34.6563L21.8262 30.6644C21.8392 30.6549 21.8523 30.6464 21.8663 30.6379L21.8673 30.6388L28.7318 26.6232L28.6408 10.7129L21.7618 6.79377C21.7505 6.78821 21.7402 6.78358 21.7298 6.77708L21.7307 6.77614L21.7298 6.77614L21.7307 6.7752Z" fill="white"/>
</g>
<path d="M19.1865 12.2503C19.1869 12.3234 19.1742 12.3929 19.1465 12.4605C19.1187 12.5272 19.0797 12.5865 19.0294 12.6384C18.9781 12.6893 18.9192 12.73 18.8519 12.7575C18.7855 12.7861 18.7162 12.8005 18.6431 12.8009C18.5709 12.8013 18.5005 12.7877 18.4337 12.7599C18.367 12.7331 18.3077 12.6932 18.2559 12.6428C18.204 12.5915 18.1643 12.5327 18.1358 12.4663C18.1082 12.399 18.0938 12.3297 18.0933 12.2565C18.0929 12.1843 18.1066 12.1149 18.1334 12.0472C18.1611 11.9805 18.2002 11.9212 18.2514 11.8693C18.3027 11.8175 18.3616 11.7778 18.428 11.7502C18.4944 11.7217 18.5646 11.7072 18.6368 11.7068C18.7099 11.7064 18.7794 11.7201 18.8461 11.7478C18.9138 11.7746 18.9731 11.8136 19.0249 11.8649C19.0759 11.9162 19.1156 11.975 19.1441 12.0414C19.1726 12.1088 19.1861 12.1781 19.1865 12.2503Z" fill="white"/>
<path d="M7.68862 23.3543C7.88284 23.2144 7.92629 22.9441 7.78642 22.7499C7.64655 22.5557 7.37627 22.5113 7.18205 22.6512C6.78802 22.9356 6.39689 23.236 6.0096 23.5523C5.62044 23.8705 5.24074 24.2018 4.87237 24.5461C4.69703 24.7093 4.68735 24.9831 4.85055 25.1585C5.01376 25.3338 5.28759 25.3435 5.46292 25.1803C5.82571 24.8426 6.19235 24.5226 6.56004 24.2214C6.92959 23.9193 7.30673 23.6302 7.68862 23.3543Z" fill="white"/>
<path d="M24.6764 18.0469C24.9155 18.0502 25.1122 17.8587 25.1156 17.6196C25.1189 17.3805 24.9274 17.1847 24.6883 17.1814C24.6677 17.1806 17.4076 17.1181 10.425 20.6543C10.2109 20.7624 10.1243 21.0235 10.2324 21.2376C10.3405 21.4517 10.6016 21.5374 10.8157 21.4293C17.6123 17.9879 24.6558 18.0461 24.6764 18.0469Z" fill="white"/>
<path fill-rule="evenodd" clip-rule="evenodd" d="M15.7366 11.3418C15.7366 11.3418 5.80322 9.60032 6.79044 19.7497C6.79044 19.7497 6.83014 21.2805 7.43536 23.0032C8.26267 25.3593 10.1487 28.0731 14.438 27.7138C14.438 27.7138 17.8025 27.6365 17.7783 23.4006C14.7757 28.7254 10.7325 24.9148 10.8055 20.9587C10.8199 20.1982 10.9853 19.4331 11.3394 18.727C10.6039 18.1649 9.88376 17.494 9.65151 16.8868C9.61724 16.797 9.66261 16.6964 9.75242 16.6621C9.84223 16.6279 9.94282 16.6732 9.97708 16.763C10.4587 18.026 13.4066 19.6753 13.415 19.6808C13.4517 19.7012 13.4781 19.733 13.4924 19.7695C13.6168 19.7219 13.7422 19.6752 13.8657 19.6295C12.8727 19.1129 11.9286 17.486 11.8538 17.3542C11.8169 17.2973 11.8146 17.2213 11.8555 17.162C12.8549 15.6777 11.979 14.9842 11.9771 14.9824C11.9027 14.9209 11.8917 14.8113 11.9532 14.7378C12.0137 14.6634 12.1233 14.6524 12.1978 14.7139C12.2006 14.7158 13.2828 15.5759 12.2048 17.2641C12.2304 17.3071 12.2645 17.3631 12.3061 17.4304C12.8628 16.9003 13.6139 16.4253 14.6112 16.0446C13.4897 14.7018 13.2765 13.9858 13.2755 13.983C13.246 13.8913 13.297 13.7935 13.3896 13.7648C13.4813 13.7352 13.5782 13.7872 13.6078 13.8789C13.6088 13.8826 14.0791 15.4645 17.4948 18.4292C17.5231 18.4544 17.5411 18.4862 17.5497 18.5208C17.7782 18.4661 18.0029 18.4151 18.2239 18.3669C17.8126 17.9305 15.8472 15.76 15.7077 13.9878C15.6996 13.8922 15.7723 13.8084 15.8679 13.8013C15.9644 13.7932 16.0473 13.8649 16.0554 13.9614C16.0938 14.4535 16.2881 14.983 16.5517 15.4962C16.7278 15.4606 16.9085 15.4276 17.0949 15.3966C19.2181 15.9676 21.8565 14.5011 23.2898 12.9815C23.6677 12.654 23.376 12.4813 23.1384 12.2539C22.4842 11.6285 19.7394 9.25431 16.3083 9.82993C16.3083 9.82993 16.0189 9.88972 16.1944 10.2366C16.3708 10.5843 16.4053 11.3689 15.7366 11.3418ZM8.09615 17.2313C8.09522 17.2323 7.65752 17.4232 8.02462 18.0025L7.72941 18.1888C7.14752 17.2677 7.95089 16.9153 7.95276 16.9143L8.09615 17.2313ZM8.17454 20.7712C8.1736 20.7712 7.7359 20.9622 8.103 21.5423L7.80779 21.7278C7.22497 20.8076 8.02834 20.4552 8.03115 20.4542L8.17454 20.7712ZM9.95813 21.4801C9.95719 21.4802 9.5195 21.6711 9.8866 22.2513L9.59138 22.4367C9.0095 21.5165 9.81287 21.1641 9.81474 21.1631L9.95813 21.4801ZM8.99114 18.6345C9.29584 18.6327 9.54383 18.8779 9.54557 19.1826C9.54731 19.4864 9.30215 19.7353 8.99744 19.737C8.69274 19.7388 8.44475 19.4927 8.44301 19.1889C8.44126 18.8842 8.68643 18.6362 8.99114 18.6345ZM8.3902 15.0395C8.69491 15.0377 8.9429 15.2838 8.94464 15.5876C8.94638 15.8923 8.70121 16.1403 8.39651 16.142C8.0918 16.1438 7.84382 15.8986 7.84207 15.5939C7.84033 15.2901 8.08549 15.0412 8.3902 15.0395ZM10.5017 13.8967C10.5034 14.2004 10.2582 14.4493 9.95354 14.4511C9.64884 14.4528 9.40084 14.2067 9.3991 13.903C9.39736 13.5983 9.64253 13.3503 9.94723 13.3485C10.2519 13.3468 10.4999 13.5919 10.5017 13.8967ZM12.7005 12.7815C12.7022 13.0852 12.4571 13.3342 12.1524 13.3359C11.8477 13.3376 11.5997 13.0915 11.5979 12.7878C11.5962 12.4831 11.8414 12.2351 12.1461 12.2333C12.4508 12.2316 12.6988 12.4768 12.7005 12.7815ZM9.42399 23.3321C9.7287 23.3304 9.97668 23.5755 9.97843 23.8803C9.98017 24.185 9.735 24.4329 9.4303 24.4347C9.12559 24.4364 8.8776 24.1913 8.87586 23.8866C8.87412 23.5819 9.11928 23.3339 9.42399 23.3321ZM18.6472 13.5303C17.9422 13.5344 17.3679 12.9657 17.3639 12.2607C17.3598 11.5556 17.9276 10.9814 18.6326 10.9774C19.3376 10.9733 19.9128 11.541 19.9168 12.2461C19.9209 12.9511 19.3522 13.5263 18.6472 13.5303Z" fill="white"/>
<path d="M39.7106 24.2481C38.5124 24.255 37.46 24.0144 36.5525 23.5274C35.6468 23.0403 34.9388 22.3618 34.4294 21.4919C33.919 20.62 33.661 19.6098 33.6545 18.4623L33.6543 18.4248C33.6476 17.265 33.8903 16.2473 34.3831 15.3715C34.8778 14.4968 35.5752 13.814 36.4753 13.3231C37.3773 12.8304 38.4334 12.5806 39.6438 12.5737C40.3039 12.5699 40.97 12.6411 41.644 12.7873C42.3199 12.9315 42.9268 13.1456 43.4666 13.4294L42.1164 16.0399C41.7403 15.8545 41.3682 15.7132 41.0001 15.615C40.632 15.5177 40.2351 15.4693 39.8104 15.4718C38.9751 15.4765 38.3279 15.7559 37.8688 16.3079C37.4088 16.8581 37.1821 17.557 37.187 18.4045L37.1872 18.442C37.192 19.2774 37.4266 19.9689 37.8929 20.5157C38.3582 21.0634 39.0086 21.3344 39.8439 21.3296C40.2687 21.3272 40.665 21.2752 41.0319 21.1728C41.3989 21.0713 41.7693 20.9314 42.1434 20.7539L43.5233 23.345C42.9867 23.6237 42.3823 23.8419 41.7081 24.0004C41.0359 24.1618 40.3707 24.2444 39.7106 24.2481Z" fill="white"/>
<path d="M50.0601 12.4954C50.7473 12.4914 51.403 12.5533 52.0263 12.6791C52.6515 12.8059 53.2078 13.0305 53.6953 13.3521C54.1847 13.6747 54.5707 14.1103 54.8541 14.6581C55.1367 15.2041 55.2813 15.9008 55.2861 16.7483L55.3267 23.84L51.809 23.8601L51.7708 17.181C51.7676 16.6185 51.6153 16.2209 51.3139 15.9873C51.0144 15.7518 50.559 15.6353 49.9468 15.6388C49.749 15.6399 49.5128 15.6544 49.2382 15.6803C48.9627 15.7072 48.6948 15.7463 48.4326 15.7975L48.4788 23.8792L44.9611 23.8993L44.8743 8.72592L48.392 8.70579L48.4143 12.5985C48.7385 12.5723 49.0412 12.549 49.3214 12.5296C49.6035 12.5083 49.85 12.4966 50.0601 12.4954Z" fill="white"/>
<path d="M62.3487 12.5C63.396 12.494 64.3043 12.6229 65.0737 12.8857C65.8421 13.1495 66.4372 13.598 66.859 14.2331C67.2799 14.8664 67.494 15.7437 67.5004 16.866L67.5386 23.5451C66.7914 23.7125 65.9596 23.8476 65.0432 23.9532C64.1287 24.0578 63.2712 24.1133 62.4714 24.1179C61.3736 24.1242 60.4157 24.0172 59.5968 23.7968C58.7799 23.5765 58.1458 23.2088 57.6928 22.6939C57.2417 22.1789 57.0146 21.4789 57.0095 20.5938L57.0094 20.5751C57.0027 19.4031 57.4403 18.5427 58.3223 17.9948C59.2042 17.4479 60.3624 17.1693 61.7978 17.1611C62.17 17.159 62.5339 17.1672 62.8893 17.1849C63.2466 17.2007 63.6181 17.2388 64.0038 17.2985L64.0021 16.9985C63.9987 16.4013 63.7807 15.989 63.3499 15.7609C62.9183 15.5308 62.3354 15.4179 61.6003 15.4221C61.0875 15.425 60.4766 15.4885 59.7675 15.6126C59.0575 15.7348 58.4041 15.9035 57.8052 16.1189L58.594 13.0428C58.841 12.9542 59.1668 12.8727 59.5714 12.7972C59.9779 12.7199 60.4238 12.6526 60.9091 12.5945C61.3963 12.5346 61.8762 12.5027 62.3487 12.5ZM60.6158 20.3294L60.6159 20.3482C60.6182 20.7485 60.7971 21.041 61.1535 21.2264C61.5118 21.41 61.9961 21.4991 62.6064 21.4956C62.8315 21.4944 63.0649 21.4846 63.3076 21.4654C63.5522 21.4443 63.7921 21.4204 64.0272 21.3938L64.0153 19.3011C63.7797 19.2528 63.5329 19.2204 63.2759 19.2041C63.0208 19.1859 62.7929 19.1769 62.5932 19.178C61.9828 19.1815 61.4995 19.2686 61.1433 19.4376C60.7889 19.6074 60.6134 19.9047 60.6158 20.3294Z" fill="white"/>
<path d="M72.9431 23.7392L69.4254 23.7594L69.3635 12.9437C69.9873 12.8276 70.6168 12.7256 71.252 12.6366C71.889 12.5458 72.4811 12.474 73.0284 12.4202C73.5775 12.3674 74.0152 12.3395 74.3405 12.3377C74.9753 12.3341 75.5711 12.4207 76.1272 12.5975C76.6832 12.7743 77.1435 13.0933 77.509 13.5534C77.9415 13.1009 78.4656 12.781 79.0824 12.5918C79.6983 12.4008 80.3568 12.3033 81.0572 12.2993C81.9919 12.2939 82.8093 12.4205 83.5083 12.679C84.2092 12.9357 84.7546 13.3713 85.1435 13.986C85.5342 14.6017 85.7332 15.4584 85.7395 16.5554L85.7801 23.6658L82.2624 23.6859L82.2241 16.988C82.2214 16.5136 82.1255 16.1335 81.9363 15.8496C81.7472 15.5637 81.3535 15.4216 80.7563 15.425C80.1562 15.4284 79.7633 15.5751 79.5774 15.8631C79.3934 16.1491 79.3037 16.5303 79.3064 17.0047L79.3448 23.7026L75.827 23.7227L75.7887 17.0248C75.7854 16.4501 75.6415 16.0459 75.358 15.8122C75.0763 15.5766 74.6997 15.4597 74.2271 15.4624C73.8521 15.4645 73.408 15.5233 72.8968 15.6387L72.9431 23.7392Z" fill="white"/>
<path d="M98.9359 18.5763L98.937 18.7638L91.0765 18.8088C91.242 19.3929 91.5533 19.8843 92.0113 20.2811C92.4683 20.6788 93.0404 20.8752 93.7285 20.8713C94.3633 20.8677 94.958 20.7649 95.5119 20.5611C96.0658 20.3582 96.5351 20.1183 96.9217 19.8404L98.4711 22.5468C97.9002 22.8979 97.2223 23.2131 96.4363 23.4923C95.6522 23.7715 94.7117 23.9147 93.6147 23.921C92.3668 23.9281 91.2807 23.6915 90.3554 23.2121C89.43 22.7298 88.7117 22.0504 88.2023 21.173C87.6919 20.2964 87.4339 19.2834 87.4273 18.1359L87.4271 18.0984C87.4205 16.9508 87.651 15.9434 88.1186 15.0754C88.5881 14.2054 89.2583 13.5218 90.1283 13.0237C90.9974 12.5265 92.0189 12.274 93.1918 12.2673C94.3637 12.2606 95.3758 12.5014 96.2262 12.9888C97.0784 13.4771 97.7416 14.1934 98.2149 15.1376C98.6872 16.0828 98.9282 17.229 98.9359 18.5763ZM93.1701 15.0352C92.6348 15.0383 92.1829 15.219 91.8156 15.5755C91.4501 15.9329 91.1995 16.3741 91.0656 16.8999L95.3708 16.8753C95.2674 16.3265 95.0248 15.8816 94.6431 15.5406C94.2605 15.2006 93.7701 15.0318 93.1701 15.0352Z" fill="white"/>
<path d="M104.159 23.5606L100.642 23.5808L100.555 8.40735L104.073 8.38722L104.159 23.5606Z" fill="white"/>
<path d="M117.34 18.471L117.341 18.6585L109.481 18.7035C109.646 19.2876 109.958 19.779 110.416 20.1758C110.873 20.5735 111.445 20.7699 112.133 20.766C112.768 20.7624 113.362 20.6596 113.916 20.4558C114.47 20.2529 114.939 20.013 115.326 19.7351L116.875 22.4415C116.305 22.7926 115.627 23.1078 114.841 23.387C114.056 23.6662 113.116 23.8094 112.019 23.8157C110.771 23.8228 109.685 23.5862 108.76 23.1068C107.834 22.6245 107.116 21.9451 106.607 21.0676C106.096 20.1911 105.838 19.1781 105.832 18.0305L105.831 17.993C105.825 16.8455 106.055 15.8381 106.523 14.9701C106.992 14.1001 107.663 13.4165 108.533 12.9184C109.402 12.4212 110.423 12.1687 111.596 12.162C112.768 12.1553 113.78 12.3961 114.63 12.8835C115.483 13.3718 116.146 14.088 116.619 15.0323C117.092 15.9775 117.332 17.1237 117.34 18.471ZM111.574 14.9299C111.039 14.933 110.587 15.1137 110.22 15.4702C109.854 15.8276 109.604 16.2688 109.47 16.7946L113.775 16.77C113.672 16.2211 113.429 15.7762 113.047 15.4353C112.665 15.0952 112.174 14.9265 111.574 14.9299Z" fill="white"/>
<path d="M124.962 23.7604C123.752 23.7673 122.684 23.5202 121.759 23.0211C120.833 22.522 120.109 21.8304 119.587 20.9484C119.064 20.0644 118.8 19.0608 118.793 17.9376L118.793 17.9189C118.786 16.7844 119.04 15.7788 119.552 14.903C120.065 14.0281 120.781 13.3386 121.7 12.8355C122.62 12.3305 123.685 12.0741 124.895 12.0672C126.118 12.0602 127.188 12.3044 128.106 12.7989C129.026 13.2915 129.748 13.9727 130.27 14.8417C130.793 15.7116 131.057 16.7142 131.064 17.8487L131.064 17.8674C131.07 18.9906 130.817 19.9971 130.305 20.887C129.792 21.775 129.076 22.4748 128.157 22.9845C127.237 23.4942 126.171 23.7534 124.962 23.7604ZM124.944 20.6177C125.729 20.6132 126.356 20.3489 126.826 19.8231C127.297 19.2953 127.532 18.6442 127.527 17.8689L127.527 17.8501C127.523 17.0776 127.288 16.4442 126.822 15.949C126.359 15.4519 125.723 15.2052 124.913 15.2098C124.115 15.2144 123.483 15.4684 123.016 15.9708C122.551 16.4713 122.321 17.1074 122.326 17.8799L122.326 17.8986C122.33 18.674 122.571 19.3224 123.049 19.8447C123.527 20.3651 124.158 20.6222 124.944 20.6177Z" fill="white"/>
<path d="M136.292 23.3768L132.775 23.3969L132.713 12.6C133.324 12.484 133.96 12.3819 134.62 12.2928C135.281 12.2018 135.899 12.1298 136.471 12.0759C137.046 12.023 137.514 11.995 137.874 11.9929C138.561 11.989 139.216 12.0509 139.84 12.1767C140.465 12.3034 141.025 12.5281 141.52 12.8496C142.014 13.1721 142.403 13.6078 142.686 14.1556C142.969 14.7015 143.113 15.3983 143.118 16.2458L143.159 23.3375L139.641 23.3576L139.603 16.6785C139.6 16.1159 139.447 15.7183 139.146 15.4847C138.847 15.2492 138.385 15.1328 137.76 15.1364C137.35 15.1387 136.845 15.1922 136.246 15.295L136.292 23.3768Z" fill="white"/>
</g>
<defs>
<clipPath id="clip0_54_186">
<rect width="144.011" height="36.0027" fill="white" transform="translate(0 0.823975) rotate(-0.327821)"/>
</clipPath>
</defs>
</svg>
