<svg xmlns="http://www.w3.org/2000/svg" xmlns:xlink="http://www.w3.org/1999/xlink" width="500" zoomAndPan="magnify" viewBox="0 0 375 374.999991" height="500" preserveAspectRatio="xMidYMid meet" version="1.0"><defs><clipPath id="416614662d"><path d="M 68 23 L 307 23 L 307 352 L 68 352 Z M 68 23 " clip-rule="nonzero"/></clipPath><clipPath id="510dcc398b"><path d="M 93.203125 196.601562 C 91.464844 196.601562 89.765625 196.085938 88.320312 195.121094 C 86.875 194.15625 85.75 192.78125 85.082031 191.175781 C 84.417969 189.570312 84.242188 187.800781 84.582031 186.097656 C 84.921875 184.394531 85.757812 182.828125 86.988281 181.597656 C 88.21875 180.367188 89.785156 179.53125 91.488281 179.191406 C 93.195312 178.851562 94.960938 179.027344 96.566406 179.691406 C 98.171875 180.359375 99.546875 181.484375 100.511719 182.929688 C 101.476562 184.375 101.992188 186.074219 101.992188 187.8125 C 101.992188 190.144531 101.066406 192.378906 99.417969 194.027344 C 97.769531 195.675781 95.535156 196.601562 93.203125 196.601562 Z M 281.796875 196.601562 C 283.535156 196.601562 285.234375 196.085938 286.679688 195.121094 C 288.125 194.15625 289.25 192.78125 289.917969 191.175781 C 290.582031 189.570312 290.757812 187.800781 290.417969 186.097656 C 290.078125 184.394531 289.242188 182.828125 288.011719 181.597656 C 286.78125 180.367188 285.214844 179.53125 283.511719 179.191406 C 281.808594 178.851562 280.039062 179.027344 278.433594 179.691406 C 276.828125 180.359375 275.453125 181.484375 274.488281 182.929688 C 273.523438 184.375 273.007812 186.074219 273.007812 187.8125 C 273.007812 190.144531 273.933594 192.378906 275.582031 194.027344 C 277.230469 195.675781 279.464844 196.601562 281.796875 196.601562 Z M 112.617188 224.921875 C 117.625 224.910156 122.59375 224.039062 127.304688 222.34375 C 126.5625 220.234375 125.859375 218.125 125.15625 215.976562 C 119.851562 215.3125 114.777344 213.398438 110.355469 210.390625 C 105.933594 207.382812 102.292969 203.363281 99.726562 198.671875 C 97.863281 199.804688 95.734375 200.421875 93.554688 200.46875 C 91.769531 206.679688 91.144531 213.171875 91.71875 219.609375 C 98.125 223.113281 105.316406 224.9375 112.617188 224.921875 Z M 123.75 211.796875 C 123.203125 210.195312 122.695312 208.554688 122.148438 206.914062 C 118.476562 195.820312 114.726562 184.609375 110.429688 173.828125 C 109.417969 177.378906 107.566406 180.632812 105.039062 183.320312 C 105.585938 184.757812 105.878906 186.277344 105.898438 187.8125 C 105.886719 190.878906 104.761719 193.832031 102.734375 196.132812 C 104.855469 200.140625 107.839844 203.625 111.476562 206.332031 C 115.113281 209.042969 119.304688 210.910156 123.75 211.796875 Z M 264.570312 173.828125 C 260.273438 184.609375 256.523438 195.820312 252.851562 206.914062 C 252.304688 208.554688 251.796875 210.195312 251.25 211.796875 C 255.691406 210.914062 259.882812 209.054688 263.515625 206.351562 C 267.152344 203.648438 270.140625 200.171875 272.265625 196.171875 C 270.238281 193.875 269.113281 190.917969 269.101562 187.851562 C 269.121094 186.316406 269.414062 184.792969 269.960938 183.359375 C 267.425781 180.660156 265.578125 177.390625 264.570312 173.828125 Z M 250 215.976562 C 249.296875 218.125 248.59375 220.234375 247.851562 222.34375 C 253.640625 224.429688 259.804688 225.265625 265.9375 224.792969 C 272.070312 224.320312 278.035156 222.554688 283.4375 219.609375 C 284.007812 213.171875 283.386719 206.679688 281.601562 200.46875 C 279.421875 200.421875 277.292969 199.804688 275.429688 198.671875 C 272.863281 203.363281 269.222656 207.382812 264.800781 210.390625 C 260.378906 213.398438 255.304688 215.3125 250 215.976562 Z M 187.5 258.671875 C 204.726562 233.984375 212.304688 205.039062 219.648438 177.03125 C 225.46875 154.804688 231.367188 131.796875 242.34375 111.445312 C 221.230469 92.746094 202.78125 71.242188 187.5 47.539062 C 172.269531 71.234375 153.867188 92.734375 132.8125 111.445312 C 143.671875 131.796875 149.6875 154.804688 155.507812 177.03125 C 162.695312 205.039062 170.273438 233.984375 187.5 258.671875 Z M 95.664062 137.34375 C 94.53125 135.78125 93.476562 134.21875 92.304688 132.734375 C 119.917969 92.8125 151.839844 56.054688 187.5 23.125 C 223.164062 56.082031 255.085938 92.863281 282.695312 132.8125 C 281.523438 134.296875 280.46875 135.859375 279.335938 137.421875 C 279.101562 137.609375 278.914062 137.851562 278.789062 138.125 C 265.117188 157.65625 256.992188 181.953125 249.140625 205.703125 C 236.09375 245.3125 223.75 282.773438 187.5 292.421875 C 151.25 282.773438 138.90625 245.3125 125.859375 205.703125 C 118.046875 181.953125 109.882812 157.539062 96.210938 138.125 C 96.097656 137.824219 95.910156 137.554688 95.664062 137.34375 Z M 128.476562 111.953125 C 139.570312 132.226562 145.390625 154.453125 151.5625 178.046875 C 159.375 207.226562 167.1875 237.421875 185.9375 263.203125 C 186.121094 263.445312 186.355469 263.644531 186.625 263.777344 C 186.898438 263.914062 187.195312 263.984375 187.5 263.984375 C 187.804688 263.984375 188.101562 263.914062 188.375 263.777344 C 188.644531 263.644531 188.878906 263.445312 189.0625 263.203125 C 207.851562 237.421875 215.78125 207.226562 223.4375 178.046875 C 229.609375 154.609375 235.429688 132.226562 246.523438 111.953125 C 246.78125 111.546875 246.882812 111.058594 246.804688 110.582031 C 246.722656 110.105469 246.472656 109.675781 246.09375 109.375 C 224.042969 90.066406 204.863281 67.703125 189.140625 42.96875 C 188.957031 42.703125 188.710938 42.484375 188.425781 42.335938 C 188.140625 42.183594 187.824219 42.105469 187.5 42.105469 C 187.175781 42.105469 186.859375 42.183594 186.574219 42.335938 C 186.289062 42.484375 186.042969 42.703125 185.859375 42.96875 C 170.136719 67.703125 150.957031 90.066406 128.90625 109.375 C 128.527344 109.675781 128.277344 110.105469 128.195312 110.582031 C 128.117188 111.058594 128.21875 111.546875 128.476562 111.953125 Z M 176.367188 311.171875 C 183.648438 313.203125 191.351562 313.203125 198.632812 311.171875 C 224.570312 303.90625 253.671875 291.640625 273.164062 257.34375 C 275.375 247.398438 276.007812 237.171875 275.039062 227.03125 C 270.917969 228.175781 266.660156 228.765625 262.382812 228.789062 C 256.933594 228.78125 251.527344 227.832031 246.40625 225.976562 C 234.6875 259.21875 220.546875 287.890625 188.007812 296.289062 L 187.03125 296.289062 C 154.453125 287.890625 140.15625 259.21875 128.4375 225.976562 C 123.316406 227.832031 117.910156 228.78125 112.460938 228.789062 C 108.183594 228.765625 103.925781 228.175781 99.804688 227.03125 C 98.835938 237.171875 99.46875 247.402344 101.679688 257.34375 C 121.328125 291.875 150.429688 303.945312 176.367188 311.210938 Z M 80.507812 187.8125 C 80.507812 185.132812 81.355469 182.523438 82.9375 180.359375 C 84.515625 178.199219 86.746094 176.59375 89.296875 175.78125 C 87.734375 172.425781 85.515625 169.417969 82.773438 166.9375 C 80.027344 164.453125 76.8125 162.546875 73.320312 161.328125 C 70.289062 167.394531 68.699219 174.078125 68.671875 180.859375 C 68.6875 184.445312 69.144531 188.011719 70.039062 191.484375 C 73.21875 189.546875 76.800781 188.359375 80.507812 188.007812 Z M 285.703125 175.78125 C 288.25 176.59375 290.472656 178.191406 292.050781 180.34375 C 293.632812 182.5 294.484375 185.101562 294.492188 187.773438 C 294.511719 187.875 294.511719 187.984375 294.492188 188.085938 C 298.214844 188.425781 301.808594 189.613281 305 191.5625 C 305.894531 188.089844 306.351562 184.523438 306.367188 180.9375 C 306.339844 174.15625 304.75 167.472656 301.71875 161.40625 C 298.226562 162.613281 295.007812 164.503906 292.257812 166.972656 C 289.507812 169.441406 287.277344 172.4375 285.703125 175.78125 Z M 281.25 141.289062 C 275.707031 149.546875 270.984375 158.324219 267.148438 167.5 C 267.355469 167.679688 267.519531 167.902344 267.632812 168.152344 C 267.75 168.402344 267.808594 168.671875 267.8125 168.945312 C 267.921875 172.914062 269.429688 176.722656 272.070312 179.6875 C 273.25 178.253906 274.726562 177.097656 276.402344 176.296875 C 278.074219 175.492188 279.902344 175.0625 281.757812 175.039062 C 283.433594 171.101562 285.894531 167.542969 288.992188 164.589844 C 292.085938 161.636719 295.753906 159.34375 299.765625 157.851562 C 295.304688 150.675781 288.878906 144.925781 281.25 141.289062 Z M 286.484375 222.265625 C 286.285156 222.433594 286.0625 222.5625 285.820312 222.65625 C 283.597656 223.90625 281.269531 224.964844 278.867188 225.820312 C 280.003906 236.792969 279.332031 247.878906 276.875 258.632812 C 276.890625 258.789062 276.890625 258.945312 276.875 259.101562 C 256.484375 294.960938 226.5625 307.460938 199.6875 314.960938 C 191.714844 317.199219 183.28125 317.199219 175.3125 314.960938 C 148.4375 307.460938 118.515625 294.960938 98.320312 259.101562 C 98.238281 258.953125 98.171875 258.796875 98.125 258.632812 C 95.667969 247.878906 94.996094 236.792969 96.132812 225.820312 C 93.730469 224.964844 91.402344 223.90625 89.179688 222.65625 C 88.9375 222.5625 88.714844 222.433594 88.515625 222.265625 L 87.226562 221.484375 C 83.214844 231.449219 80.863281 242.007812 80.273438 252.734375 C 79.886719 257.609375 80.605469 262.511719 82.382812 267.070312 C 100.703125 314.53125 135.117188 342.304688 187.5 351.875 C 239.882812 342.304688 274.296875 314.53125 292.617188 266.914062 C 294.394531 262.355469 295.113281 257.453125 294.726562 252.578125 C 294.136719 241.851562 291.785156 231.292969 287.773438 221.328125 Z M 285.351562 199.960938 C 286.867188 205.53125 287.535156 211.300781 287.34375 217.070312 C 295 211.742188 300.773438 204.125 303.828125 195.3125 C 300.816406 193.316406 297.351562 192.105469 293.75 191.796875 C 293.105469 193.730469 292.007812 195.480469 290.546875 196.902344 C 289.082031 198.324219 287.300781 199.371094 285.351562 199.960938 Z M 89.648438 199.960938 C 87.738281 199.402344 85.984375 198.402344 84.527344 197.046875 C 83.066406 195.691406 81.945312 194.015625 81.25 192.148438 C 77.652344 192.476562 74.191406 193.683594 71.171875 195.664062 C 74.257812 204.421875 80.023438 211.980469 87.65625 217.265625 C 87.507812 211.421875 88.246094 205.585938 89.84375 199.960938 Z M 93.242188 175.117188 C 95.089844 175.132812 96.914062 175.546875 98.589844 176.339844 C 100.261719 177.128906 101.742188 178.269531 102.929688 179.6875 C 105.589844 176.699219 107.097656 172.867188 107.1875 168.867188 C 107.191406 168.59375 107.25 168.324219 107.367188 168.074219 C 107.480469 167.824219 107.644531 167.601562 107.851562 167.421875 C 104.011719 158.273438 99.289062 149.523438 93.75 141.289062 C 86.113281 144.949219 79.683594 150.722656 75.234375 157.929688 C 79.246094 159.421875 82.914062 161.710938 86.007812 164.667969 C 89.105469 167.621094 91.566406 171.179688 93.242188 175.117188 Z M 93.242188 175.117188 " clip-rule="nonzero"/></clipPath><linearGradient x1="48.005001" gradientTransform="matrix(3.90625, 0, 0, 3.90625, 0.0000045, 0)" y1="5.91998" x2="48.005001" gradientUnits="userSpaceOnUse" y2="90.08" id="225f6da680"><stop stop-opacity="1" stop-color="rgb(26.298523%, 80.799866%, 63.499451%)" offset="0"/><stop stop-opacity="1" stop-color="rgb(26.23291%, 80.621338%, 63.491821%)" offset="0.0078125"/><stop stop-opacity="1" stop-color="rgb(26.100159%, 80.265808%, 63.476562%)" offset="0.015625"/><stop stop-opacity="1" stop-color="rgb(25.968933%, 79.910278%, 63.461304%)" offset="0.0234375"/><stop stop-opacity="1" stop-color="rgb(25.836182%, 79.554749%, 63.447571%)" offset="0.03125"/><stop stop-opacity="1" stop-color="rgb(25.704956%, 79.199219%, 63.432312%)" offset="0.0390625"/><stop stop-opacity="1" stop-color="rgb(25.572205%, 78.843689%, 63.417053%)" offset="0.046875"/><stop stop-opacity="1" stop-color="rgb(25.440979%, 78.488159%, 63.401794%)" offset="0.0546875"/><stop stop-opacity="1" stop-color="rgb(25.308228%, 78.132629%, 63.388062%)" offset="0.0625"/><stop stop-opacity="1" stop-color="rgb(25.177002%, 77.7771%, 63.372803%)" offset="0.0703125"/><stop stop-opacity="1" stop-color="rgb(25.04425%, 77.42157%, 63.357544%)" offset="0.078125"/><stop stop-opacity="1" stop-color="rgb(24.913025%, 77.06604%, 63.343811%)" offset="0.0859375"/><stop stop-opacity="1" stop-color="rgb(24.780273%, 76.71051%, 63.328552%)" offset="0.09375"/><stop stop-opacity="1" stop-color="rgb(24.649048%, 76.35498%, 63.313293%)" offset="0.101562"/><stop stop-opacity="1" stop-color="rgb(24.516296%, 75.999451%, 63.298035%)" offset="0.109375"/><stop stop-opacity="1" stop-color="rgb(24.385071%, 75.643921%, 63.284302%)" offset="0.117187"/><stop stop-opacity="1" stop-color="rgb(24.252319%, 75.288391%, 63.269043%)" offset="0.125"/><stop stop-opacity="1" stop-color="rgb(24.119568%, 74.932861%, 63.253784%)" offset="0.132812"/><stop stop-opacity="1" stop-color="rgb(23.988342%, 74.577332%, 63.238525%)" offset="0.140625"/><stop stop-opacity="1" stop-color="rgb(23.855591%, 74.221802%, 63.224792%)" offset="0.148438"/><stop stop-opacity="1" stop-color="rgb(23.724365%, 73.866272%, 63.209534%)" offset="0.15625"/><stop stop-opacity="1" stop-color="rgb(23.591614%, 73.510742%, 63.194275%)" offset="0.164062"/><stop stop-opacity="1" stop-color="rgb(23.460388%, 73.155212%, 63.180542%)" offset="0.171875"/><stop stop-opacity="1" stop-color="rgb(23.327637%, 72.801208%, 63.165283%)" offset="0.179687"/><stop stop-opacity="1" stop-color="rgb(23.196411%, 72.445679%, 63.150024%)" offset="0.1875"/><stop stop-opacity="1" stop-color="rgb(23.06366%, 72.090149%, 63.134766%)" offset="0.195312"/><stop stop-opacity="1" stop-color="rgb(22.932434%, 71.734619%, 63.121033%)" offset="0.203125"/><stop stop-opacity="1" stop-color="rgb(22.799683%, 71.379089%, 63.105774%)" offset="0.210938"/><stop stop-opacity="1" stop-color="rgb(22.668457%, 71.02356%, 63.090515%)" offset="0.21875"/><stop stop-opacity="1" stop-color="rgb(22.535706%, 70.66803%, 63.075256%)" offset="0.226562"/><stop stop-opacity="1" stop-color="rgb(22.40448%, 70.3125%, 63.061523%)" offset="0.234375"/><stop stop-opacity="1" stop-color="rgb(22.271729%, 69.95697%, 63.046265%)" offset="0.242187"/><stop stop-opacity="1" stop-color="rgb(22.140503%, 69.60144%, 63.031006%)" offset="0.25"/><stop stop-opacity="1" stop-color="rgb(22.007751%, 69.245911%, 63.017273%)" offset="0.257812"/><stop stop-opacity="1" stop-color="rgb(21.876526%, 68.890381%, 63.002014%)" offset="0.265625"/><stop stop-opacity="1" stop-color="rgb(21.743774%, 68.534851%, 62.986755%)" offset="0.273437"/><stop stop-opacity="1" stop-color="rgb(21.611023%, 68.179321%, 62.971497%)" offset="0.28125"/><stop stop-opacity="1" stop-color="rgb(21.479797%, 67.823792%, 62.957764%)" offset="0.289062"/><stop stop-opacity="1" stop-color="rgb(21.347046%, 67.468262%, 62.942505%)" offset="0.296875"/><stop stop-opacity="1" stop-color="rgb(21.21582%, 67.112732%, 62.927246%)" offset="0.304687"/><stop stop-opacity="1" stop-color="rgb(21.083069%, 66.757202%, 62.911987%)" offset="0.3125"/><stop stop-opacity="1" stop-color="rgb(20.951843%, 66.401672%, 62.898254%)" offset="0.320312"/><stop stop-opacity="1" stop-color="rgb(20.819092%, 66.046143%, 62.882996%)" offset="0.328125"/><stop stop-opacity="1" stop-color="rgb(20.687866%, 65.690613%, 62.867737%)" offset="0.335937"/><stop stop-opacity="1" stop-color="rgb(20.555115%, 65.335083%, 62.854004%)" offset="0.34375"/><stop stop-opacity="1" stop-color="rgb(20.423889%, 64.979553%, 62.838745%)" offset="0.351562"/><stop stop-opacity="1" stop-color="rgb(20.291138%, 64.624023%, 62.823486%)" offset="0.359375"/><stop stop-opacity="1" stop-color="rgb(20.159912%, 64.268494%, 62.808228%)" offset="0.367188"/><stop stop-opacity="1" stop-color="rgb(20.027161%, 63.91449%, 62.794495%)" offset="0.375"/><stop stop-opacity="1" stop-color="rgb(19.895935%, 63.55896%, 62.779236%)" offset="0.382812"/><stop stop-opacity="1" stop-color="rgb(19.763184%, 63.20343%, 62.763977%)" offset="0.390625"/><stop stop-opacity="1" stop-color="rgb(19.631958%, 62.8479%, 62.748718%)" offset="0.398438"/><stop stop-opacity="1" stop-color="rgb(19.499207%, 62.492371%, 62.734985%)" offset="0.40625"/><stop stop-opacity="1" stop-color="rgb(19.366455%, 62.136841%, 62.719727%)" offset="0.414063"/><stop stop-opacity="1" stop-color="rgb(19.235229%, 61.781311%, 62.704468%)" offset="0.421875"/><stop stop-opacity="1" stop-color="rgb(19.102478%, 61.425781%, 62.690735%)" offset="0.429688"/><stop stop-opacity="1" stop-color="rgb(18.971252%, 61.070251%, 62.675476%)" offset="0.4375"/><stop stop-opacity="1" stop-color="rgb(18.838501%, 60.714722%, 62.660217%)" offset="0.445313"/><stop stop-opacity="1" stop-color="rgb(18.707275%, 60.359192%, 62.644958%)" offset="0.453125"/><stop stop-opacity="1" stop-color="rgb(18.574524%, 60.003662%, 62.631226%)" offset="0.460938"/><stop stop-opacity="1" stop-color="rgb(18.443298%, 59.648132%, 62.615967%)" offset="0.46875"/><stop stop-opacity="1" stop-color="rgb(18.310547%, 59.292603%, 62.600708%)" offset="0.476563"/><stop stop-opacity="1" stop-color="rgb(18.179321%, 58.937073%, 62.585449%)" offset="0.484375"/><stop stop-opacity="1" stop-color="rgb(18.04657%, 58.581543%, 62.571716%)" offset="0.492188"/><stop stop-opacity="1" stop-color="rgb(17.915344%, 58.226013%, 62.556458%)" offset="0.5"/><stop stop-opacity="1" stop-color="rgb(17.782593%, 57.870483%, 62.541199%)" offset="0.507812"/><stop stop-opacity="1" stop-color="rgb(17.651367%, 57.514954%, 62.527466%)" offset="0.515625"/><stop stop-opacity="1" stop-color="rgb(17.518616%, 57.159424%, 62.512207%)" offset="0.523438"/><stop stop-opacity="1" stop-color="rgb(17.38739%, 56.803894%, 62.496948%)" offset="0.53125"/><stop stop-opacity="1" stop-color="rgb(17.254639%, 56.448364%, 62.481689%)" offset="0.539062"/><stop stop-opacity="1" stop-color="rgb(17.123413%, 56.092834%, 62.467957%)" offset="0.546875"/><stop stop-opacity="1" stop-color="rgb(16.990662%, 55.737305%, 62.452698%)" offset="0.554688"/><stop stop-opacity="1" stop-color="rgb(16.85791%, 55.381775%, 62.437439%)" offset="0.5625"/><stop stop-opacity="1" stop-color="rgb(16.726685%, 55.027771%, 62.42218%)" offset="0.570312"/><stop stop-opacity="1" stop-color="rgb(16.593933%, 54.672241%, 62.408447%)" offset="0.578125"/><stop stop-opacity="1" stop-color="rgb(16.462708%, 54.316711%, 62.393188%)" offset="0.585938"/><stop stop-opacity="1" stop-color="rgb(16.329956%, 53.961182%, 62.37793%)" offset="0.59375"/><stop stop-opacity="1" stop-color="rgb(16.19873%, 53.605652%, 62.364197%)" offset="0.601562"/><stop stop-opacity="1" stop-color="rgb(16.065979%, 53.250122%, 62.348938%)" offset="0.609375"/><stop stop-opacity="1" stop-color="rgb(15.934753%, 52.894592%, 62.333679%)" offset="0.617187"/><stop stop-opacity="1" stop-color="rgb(15.802002%, 52.539062%, 62.31842%)" offset="0.625"/><stop stop-opacity="1" stop-color="rgb(15.670776%, 52.183533%, 62.304688%)" offset="0.632812"/><stop stop-opacity="1" stop-color="rgb(15.538025%, 51.828003%, 62.289429%)" offset="0.640625"/><stop stop-opacity="1" stop-color="rgb(15.406799%, 51.472473%, 62.27417%)" offset="0.648438"/><stop stop-opacity="1" stop-color="rgb(15.274048%, 51.116943%, 62.258911%)" offset="0.65625"/><stop stop-opacity="1" stop-color="rgb(15.142822%, 50.761414%, 62.245178%)" offset="0.664062"/><stop stop-opacity="1" stop-color="rgb(15.010071%, 50.405884%, 62.229919%)" offset="0.671875"/><stop stop-opacity="1" stop-color="rgb(14.878845%, 50.050354%, 62.214661%)" offset="0.679687"/><stop stop-opacity="1" stop-color="rgb(14.746094%, 49.694824%, 62.200928%)" offset="0.6875"/><stop stop-opacity="1" stop-color="rgb(14.613342%, 49.339294%, 62.185669%)" offset="0.695312"/><stop stop-opacity="1" stop-color="rgb(14.482117%, 48.983765%, 62.17041%)" offset="0.703125"/><stop stop-opacity="1" stop-color="rgb(14.349365%, 48.628235%, 62.155151%)" offset="0.710938"/><stop stop-opacity="1" stop-color="rgb(14.21814%, 48.272705%, 62.141418%)" offset="0.71875"/><stop stop-opacity="1" stop-color="rgb(14.085388%, 47.917175%, 62.12616%)" offset="0.726562"/><stop stop-opacity="1" stop-color="rgb(13.954163%, 47.561646%, 62.110901%)" offset="0.734375"/><stop stop-opacity="1" stop-color="rgb(13.821411%, 47.206116%, 62.095642%)" offset="0.742188"/><stop stop-opacity="1" stop-color="rgb(13.690186%, 46.850586%, 62.081909%)" offset="0.75"/><stop stop-opacity="1" stop-color="rgb(13.557434%, 46.495056%, 62.06665%)" offset="0.757812"/><stop stop-opacity="1" stop-color="rgb(13.426208%, 46.141052%, 62.051392%)" offset="0.765625"/><stop stop-opacity="1" stop-color="rgb(13.293457%, 45.785522%, 62.037659%)" offset="0.773438"/><stop stop-opacity="1" stop-color="rgb(13.162231%, 45.429993%, 62.0224%)" offset="0.78125"/><stop stop-opacity="1" stop-color="rgb(13.02948%, 45.074463%, 62.007141%)" offset="0.789062"/><stop stop-opacity="1" stop-color="rgb(12.898254%, 44.718933%, 61.991882%)" offset="0.796875"/><stop stop-opacity="1" stop-color="rgb(12.765503%, 44.363403%, 61.978149%)" offset="0.804688"/><stop stop-opacity="1" stop-color="rgb(12.634277%, 44.007874%, 61.962891%)" offset="0.8125"/><stop stop-opacity="1" stop-color="rgb(12.501526%, 43.652344%, 61.947632%)" offset="0.820313"/><stop stop-opacity="1" stop-color="rgb(12.3703%, 43.296814%, 61.932373%)" offset="0.828125"/><stop stop-opacity="1" stop-color="rgb(12.237549%, 42.941284%, 61.91864%)" offset="0.835938"/><stop stop-opacity="1" stop-color="rgb(12.104797%, 42.585754%, 61.903381%)" offset="0.84375"/><stop stop-opacity="1" stop-color="rgb(11.973572%, 42.230225%, 61.888123%)" offset="0.851562"/><stop stop-opacity="1" stop-color="rgb(11.84082%, 41.874695%, 61.87439%)" offset="0.859375"/><stop stop-opacity="1" stop-color="rgb(11.709595%, 41.519165%, 61.859131%)" offset="0.867188"/><stop stop-opacity="1" stop-color="rgb(11.576843%, 41.163635%, 61.843872%)" offset="0.875"/><stop stop-opacity="1" stop-color="rgb(11.445618%, 40.808105%, 61.828613%)" offset="0.882813"/><stop stop-opacity="1" stop-color="rgb(11.312866%, 40.452576%, 61.81488%)" offset="0.890625"/><stop stop-opacity="1" stop-color="rgb(11.181641%, 40.097046%, 61.799622%)" offset="0.898438"/><stop stop-opacity="1" stop-color="rgb(11.048889%, 39.741516%, 61.784363%)" offset="0.90625"/><stop stop-opacity="1" stop-color="rgb(10.917664%, 39.385986%, 61.769104%)" offset="0.914062"/><stop stop-opacity="1" stop-color="rgb(10.784912%, 39.030457%, 61.755371%)" offset="0.921875"/><stop stop-opacity="1" stop-color="rgb(10.653687%, 38.674927%, 61.740112%)" offset="0.929688"/><stop stop-opacity="1" stop-color="rgb(10.520935%, 38.319397%, 61.724854%)" offset="0.9375"/><stop stop-opacity="1" stop-color="rgb(10.389709%, 37.963867%, 61.711121%)" offset="0.945312"/><stop stop-opacity="1" stop-color="rgb(10.256958%, 37.608337%, 61.695862%)" offset="0.953125"/><stop stop-opacity="1" stop-color="rgb(10.125732%, 37.254333%, 61.680603%)" offset="0.960938"/><stop stop-opacity="1" stop-color="rgb(9.992981%, 36.898804%, 61.665344%)" offset="0.96875"/><stop stop-opacity="1" stop-color="rgb(9.860229%, 36.543274%, 61.651611%)" offset="0.976562"/><stop stop-opacity="1" stop-color="rgb(9.729004%, 36.187744%, 61.636353%)" offset="0.984375"/><stop stop-opacity="1" stop-color="rgb(9.596252%, 35.832214%, 61.621094%)" offset="0.992188"/><stop stop-opacity="1" stop-color="rgb(9.465027%, 35.476685%, 61.605835%)" offset="1"/></linearGradient></defs><g clip-path="url(#416614662d)"><g clip-path="url(#510dcc398b)"><path fill="url(#225f6da680)" d="M 68.671875 23.125 L 68.671875 351.875 L 306.367188 351.875 L 306.367188 23.125 Z M 68.671875 23.125 " fill-rule="nonzero"/></g></g></svg>