<svg xmlns="http://www.w3.org/2000/svg" xmlns:xlink="http://www.w3.org/1999/xlink" width="800" zoomAndPan="magnify" viewBox="0 0 600 149.999998" height="200" preserveAspectRatio="xMidYMid meet" version="1.0"><defs><g/><clipPath id="e3a9abf695"><path d="M 0 4 L 123.75 4 L 123.75 146 L 0 146 Z M 0 4 " clip-rule="nonzero"/></clipPath></defs><g clip-path="url(#e3a9abf695)"><path fill="#000000" d="M 62.941406 4.519531 L 92.53125 21.605469 L 91.464844 23.460938 L 92.539062 21.597656 C 92.582031 21.625 92.625 21.652344 92.664062 21.679688 L 122.308594 38.792969 L 122.3125 38.789062 C 123.011719 39.191406 123.394531 39.925781 123.386719 40.679688 L 123.386719 109.40625 C 123.386719 110.257812 122.894531 110.992188 122.175781 111.339844 L 92.539062 128.449219 L 91.464844 126.59375 L 92.539062 128.457031 C 92.480469 128.488281 92.421875 128.519531 92.363281 128.546875 L 62.761719 145.636719 L 62.769531 145.644531 C 62.015625 146.078125 61.109375 146.007812 60.445312 145.535156 L 30.855469 128.449219 L 31.921875 126.59375 L 30.847656 128.457031 C 30.804688 128.429688 30.761719 128.40625 30.722656 128.378906 L 1.078125 111.261719 L 1.074219 111.265625 C 0.375 110.863281 -0.0078125 110.128906 0 109.378906 L 0 40.648438 C 0 39.800781 0.492188 39.066406 1.210938 38.714844 L 30.847656 21.605469 L 31.921875 23.460938 L 30.847656 21.597656 C 30.90625 21.566406 30.964844 21.535156 31.023438 21.507812 L 60.625 4.417969 L 60.621094 4.410156 C 61.371094 3.976562 62.277344 4.046875 62.941406 4.519531 Z M 90.394531 25.3125 L 61.695312 8.742188 L 33.164062 25.214844 C 33.109375 25.25 33.054688 25.289062 32.996094 25.320312 L 32.992188 25.316406 L 4.296875 41.882812 L 4.296875 108.171875 L 32.863281 124.664062 C 32.910156 124.6875 32.953125 124.710938 32.996094 124.734375 L 32.992188 124.738281 L 32.996094 124.742188 L 32.992188 124.742188 L 61.695312 141.3125 L 90.222656 124.84375 C 90.277344 124.804688 90.332031 124.769531 90.390625 124.734375 L 90.394531 124.738281 L 119.089844 108.171875 L 119.089844 41.882812 L 90.523438 25.390625 C 90.476562 25.367188 90.433594 25.347656 90.390625 25.320312 L 90.394531 25.316406 L 90.390625 25.316406 Z M 90.394531 25.3125 " fill-opacity="1" fill-rule="nonzero"/></g><path fill="#000000" d="M 79.664062 48.0625 C 79.664062 48.367188 79.609375 48.65625 79.492188 48.9375 C 79.375 49.214844 79.210938 49.460938 79 49.675781 C 78.785156 49.886719 78.539062 50.054688 78.257812 50.167969 C 77.980469 50.285156 77.691406 50.34375 77.386719 50.34375 C 77.085938 50.34375 76.792969 50.285156 76.515625 50.167969 C 76.238281 50.054688 75.992188 49.886719 75.777344 49.675781 C 75.5625 49.460938 75.398438 49.214844 75.28125 48.9375 C 75.167969 48.65625 75.109375 48.367188 75.109375 48.0625 C 75.109375 47.761719 75.167969 47.472656 75.28125 47.191406 C 75.398438 46.914062 75.5625 46.667969 75.777344 46.453125 C 75.992188 46.238281 76.238281 46.074219 76.515625 45.960938 C 76.792969 45.84375 77.085938 45.785156 77.386719 45.785156 C 77.691406 45.785156 77.980469 45.84375 78.257812 45.960938 C 78.539062 46.074219 78.785156 46.238281 79 46.453125 C 79.210938 46.667969 79.375 46.914062 79.492188 47.191406 C 79.609375 47.472656 79.664062 47.761719 79.664062 48.0625 Z M 79.664062 48.0625 " fill-opacity="1" fill-rule="nonzero"/><path fill="#000000" d="M 31.496094 94.050781 C 32.308594 93.472656 32.496094 92.347656 31.917969 91.535156 C 31.339844 90.722656 30.214844 90.53125 29.402344 91.109375 C 27.753906 92.285156 26.117188 93.527344 24.496094 94.835938 C 22.867188 96.152344 21.277344 97.523438 19.734375 98.949219 C 19 99.625 18.953125 100.765625 19.628906 101.5 C 20.304688 102.234375 21.445312 102.28125 22.179688 101.605469 C 23.699219 100.207031 25.234375 98.882812 26.773438 97.636719 C 28.320312 96.386719 29.898438 95.191406 31.496094 94.050781 Z M 31.496094 94.050781 " fill-opacity="1" fill-rule="nonzero"/><path fill="#000000" d="M 102.398438 72.34375 C 103.394531 72.363281 104.21875 71.570312 104.238281 70.574219 C 104.257812 69.578125 103.464844 68.757812 102.46875 68.738281 C 102.382812 68.734375 72.136719 68.300781 42.960938 82.867188 C 42.066406 83.3125 41.699219 84.398438 42.144531 85.292969 C 42.589844 86.1875 43.675781 86.550781 44.570312 86.105469 C 72.96875 71.929688 102.3125 72.339844 102.398438 72.34375 Z M 102.398438 72.34375 " fill-opacity="1" fill-rule="nonzero"/><path fill="#000000" d="M 65.3125 44.195312 C 65.3125 44.195312 23.96875 36.703125 27.839844 79.011719 C 27.839844 79.011719 27.96875 85.390625 30.449219 92.582031 C 33.839844 102.417969 41.632812 113.769531 59.511719 112.375 C 59.511719 112.375 73.53125 112.132812 73.53125 94.484375 C 60.894531 116.597656 44.140625 100.625 44.539062 84.144531 C 44.617188 80.976562 45.324219 77.792969 46.816406 74.859375 C 43.765625 72.5 40.78125 69.6875 39.828125 67.152344 C 39.6875 66.777344 39.878906 66.359375 40.253906 66.21875 C 40.628906 66.078125 41.046875 66.269531 41.1875 66.644531 C 43.164062 71.917969 55.40625 78.859375 55.441406 78.882812 C 55.59375 78.96875 55.703125 79.101562 55.761719 79.253906 C 56.28125 79.058594 56.804688 78.867188 57.320312 78.679688 C 53.195312 76.503906 49.300781 69.703125 48.992188 69.152344 C 48.839844 68.914062 48.832031 68.597656 49.003906 68.351562 C 53.203125 62.191406 49.570312 59.28125 49.5625 59.273438 C 49.253906 59.015625 49.210938 58.558594 49.46875 58.253906 C 49.722656 57.945312 50.179688 57.902344 50.488281 58.160156 C 50.5 58.167969 54.988281 61.777344 50.457031 68.785156 C 50.5625 68.964844 50.703125 69.199219 50.875 69.480469 C 53.207031 67.285156 56.347656 65.324219 60.511719 63.761719 C 55.871094 58.140625 55 55.152344 54.996094 55.140625 C 54.875 54.757812 55.089844 54.351562 55.476562 54.234375 C 55.859375 54.113281 56.261719 54.332031 56.382812 54.714844 C 56.386719 54.730469 58.308594 61.332031 72.46875 73.765625 C 72.585938 73.871094 72.660156 74.003906 72.695312 74.148438 C 73.648438 73.925781 74.585938 73.71875 75.507812 73.523438 C 73.804688 71.695312 65.667969 62.605469 65.128906 55.21875 C 65.097656 54.820312 65.402344 54.472656 65.800781 54.445312 C 66.203125 54.414062 66.546875 54.714844 66.578125 55.117188 C 66.726562 57.167969 67.523438 59.378906 68.609375 61.523438 C 69.34375 61.378906 70.097656 61.246094 70.875 61.121094 C 79.707031 63.550781 90.734375 57.503906 96.742188 51.207031 C 98.324219 49.851562 97.113281 49.125 96.128906 48.171875 C 93.417969 45.550781 82.039062 35.59375 67.730469 37.910156 C 67.730469 37.910156 66.523438 38.152344 67.246094 39.601562 C 67.972656 41.054688 68.097656 44.324219 65.3125 44.195312 Z M 33.339844 68.550781 C 33.335938 68.554688 31.507812 69.339844 33.023438 71.761719 L 31.789062 72.53125 C 29.386719 68.679688 32.742188 67.230469 32.75 67.226562 Z M 33.582031 83.300781 C 33.578125 83.300781 31.75 84.085938 33.265625 86.511719 L 32.03125 87.277344 C 29.625 83.429688 32.980469 81.980469 32.992188 81.976562 Z M 40.996094 86.296875 C 40.992188 86.296875 39.164062 87.082031 40.679688 89.507812 L 39.445312 90.273438 C 37.042969 86.425781 40.398438 84.976562 40.40625 84.972656 Z M 37.035156 74.417969 C 38.304688 74.417969 39.332031 75.445312 39.332031 76.714844 C 39.332031 77.980469 38.304688 79.011719 37.035156 79.011719 C 35.765625 79.011719 34.738281 77.980469 34.738281 76.714844 C 34.738281 75.445312 35.765625 74.417969 37.035156 74.417969 Z M 34.617188 59.425781 C 35.886719 59.425781 36.914062 60.457031 36.914062 61.722656 C 36.914062 62.992188 35.886719 64.019531 34.617188 64.019531 C 33.347656 64.019531 32.320312 62.992188 32.320312 61.722656 C 32.320312 60.457031 33.347656 59.425781 34.617188 59.425781 Z M 43.441406 54.714844 C 43.441406 55.980469 42.414062 57.007812 41.144531 57.007812 C 39.875 57.007812 38.847656 55.980469 38.847656 54.714844 C 38.847656 53.445312 39.875 52.417969 41.144531 52.417969 C 42.414062 52.417969 43.441406 53.445312 43.441406 54.714844 Z M 52.628906 50.121094 C 52.628906 51.386719 51.601562 52.417969 50.332031 52.417969 C 49.0625 52.417969 48.035156 51.386719 48.035156 50.121094 C 48.035156 48.851562 49.0625 47.824219 50.332031 47.824219 C 51.601562 47.824219 52.628906 48.851562 52.628906 50.121094 Z M 38.726562 94 C 39.996094 94 41.023438 95.027344 41.023438 96.296875 C 41.023438 97.566406 39.996094 98.59375 38.726562 98.59375 C 37.457031 98.59375 36.429688 97.566406 36.429688 96.296875 C 36.429688 95.027344 37.457031 94 38.726562 94 Z M 77.386719 53.382812 C 74.449219 53.382812 72.070312 51 72.070312 48.0625 C 72.070312 45.125 74.449219 42.746094 77.386719 42.746094 C 80.324219 42.746094 82.707031 45.125 82.707031 48.0625 C 82.707031 51 80.324219 53.382812 77.386719 53.382812 Z M 77.386719 53.382812 " fill-opacity="1" fill-rule="evenodd"/><g fill="#000000" fill-opacity="1"><g transform="translate(136.746803, 97.21019)"><g><path d="M 28.140625 1.328125 C 23.148438 1.328125 18.769531 0.300781 15 -1.75 C 11.238281 -3.800781 8.304688 -6.644531 6.203125 -10.28125 C 4.097656 -13.925781 3.046875 -18.140625 3.046875 -22.921875 L 3.046875 -23.078125 C 3.046875 -27.910156 4.082031 -32.144531 6.15625 -35.78125 C 8.238281 -39.414062 11.160156 -42.242188 14.921875 -44.265625 C 18.691406 -46.296875 23.097656 -47.3125 28.140625 -47.3125 C 30.890625 -47.3125 33.664062 -47 36.46875 -46.375 C 39.28125 -45.757812 41.804688 -44.851562 44.046875 -43.65625 L 38.359375 -32.8125 C 36.796875 -33.59375 35.25 -34.191406 33.71875 -34.609375 C 32.1875 -35.023438 30.535156 -35.234375 28.765625 -35.234375 C 25.285156 -35.234375 22.582031 -34.085938 20.65625 -31.796875 C 18.726562 -29.515625 17.765625 -26.609375 17.765625 -23.078125 L 17.765625 -22.921875 C 17.765625 -19.441406 18.726562 -16.554688 20.65625 -14.265625 C 22.582031 -11.972656 25.285156 -10.828125 28.765625 -10.828125 C 30.535156 -10.828125 32.1875 -11.035156 33.71875 -11.453125 C 35.25 -11.867188 36.796875 -12.441406 38.359375 -13.171875 L 44.046875 -2.34375 C 41.804688 -1.195312 39.28125 -0.300781 36.46875 0.34375 C 33.664062 1 30.890625 1.328125 28.140625 1.328125 Z M 28.140625 1.328125 "/></g></g></g><g fill="#000000" fill-opacity="1"><g transform="translate(182.801689, 97.21019)"><g><path d="M 25.484375 -47.390625 C 28.347656 -47.390625 31.078125 -47.117188 33.671875 -46.578125 C 36.273438 -46.035156 38.585938 -45.085938 40.609375 -43.734375 C 42.640625 -42.378906 44.238281 -40.554688 45.40625 -38.265625 C 46.570312 -35.984375 47.15625 -33.078125 47.15625 -29.546875 L 47.15625 0 L 32.5 0 L 32.5 -27.828125 C 32.5 -30.171875 31.875 -31.832031 30.625 -32.8125 C 29.382812 -33.800781 27.488281 -34.296875 24.9375 -34.296875 C 24.113281 -34.296875 23.128906 -34.242188 21.984375 -34.140625 C 20.835938 -34.035156 19.71875 -33.878906 18.625 -33.671875 L 18.625 0 L 3.96875 0 L 3.96875 -63.21875 L 18.625 -63.21875 L 18.625 -47 C 19.976562 -47.101562 21.238281 -47.191406 22.40625 -47.265625 C 23.582031 -47.347656 24.609375 -47.390625 25.484375 -47.390625 Z M 25.484375 -47.390625 "/></g></g></g><g fill="#000000" fill-opacity="1"><g transform="translate(233.999754, 97.21019)"><g><path d="M 25.484375 -47.078125 C 29.847656 -47.078125 33.628906 -46.519531 36.828125 -45.40625 C 40.023438 -44.289062 42.492188 -42.40625 44.234375 -39.75 C 45.972656 -37.101562 46.84375 -33.441406 46.84375 -28.765625 L 46.84375 -0.9375 C 43.726562 -0.257812 40.257812 0.285156 36.4375 0.703125 C 32.625 1.117188 29.050781 1.328125 25.71875 1.328125 C 21.144531 1.328125 17.15625 0.859375 13.75 -0.078125 C 10.351562 -1.015625 7.71875 -2.5625 5.84375 -4.71875 C 3.976562 -6.875 3.046875 -9.796875 3.046875 -13.484375 L 3.046875 -13.5625 C 3.046875 -18.445312 4.890625 -22.019531 8.578125 -24.28125 C 12.265625 -26.539062 17.097656 -27.671875 23.078125 -27.671875 C 24.628906 -27.671875 26.144531 -27.628906 27.625 -27.546875 C 29.113281 -27.472656 30.660156 -27.304688 32.265625 -27.046875 L 32.265625 -28.296875 C 32.265625 -30.785156 31.367188 -32.507812 29.578125 -33.46875 C 27.785156 -34.4375 25.359375 -34.921875 22.296875 -34.921875 C 20.160156 -34.921875 17.613281 -34.671875 14.65625 -34.171875 C 11.695312 -33.679688 8.96875 -32.992188 6.46875 -32.109375 L 9.828125 -44.90625 C 10.859375 -45.269531 12.21875 -45.601562 13.90625 -45.90625 C 15.601562 -46.21875 17.460938 -46.488281 19.484375 -46.71875 C 21.515625 -46.957031 23.515625 -47.078125 25.484375 -47.078125 Z M 18.078125 -14.5 L 18.078125 -14.421875 C 18.078125 -12.753906 18.816406 -11.53125 20.296875 -10.75 C 21.785156 -9.976562 23.800781 -9.59375 26.34375 -9.59375 C 27.28125 -9.59375 28.253906 -9.628906 29.265625 -9.703125 C 30.285156 -9.785156 31.285156 -9.878906 32.265625 -9.984375 L 32.265625 -18.703125 C 31.285156 -18.910156 30.257812 -19.050781 29.1875 -19.125 C 28.125 -19.207031 27.175781 -19.25 26.34375 -19.25 C 23.800781 -19.25 21.785156 -18.898438 20.296875 -18.203125 C 18.816406 -17.503906 18.078125 -16.269531 18.078125 -14.5 Z M 18.078125 -14.5 "/></g></g></g><g fill="#000000" fill-opacity="1"><g transform="translate(284.730276, 97.21019)"><g><path d="M 18.625 0 L 3.96875 0 L 3.96875 -45.0625 C 6.570312 -45.53125 9.195312 -45.941406 11.84375 -46.296875 C 14.5 -46.660156 16.96875 -46.945312 19.25 -47.15625 C 21.539062 -47.363281 23.363281 -47.46875 24.71875 -47.46875 C 27.363281 -47.46875 29.84375 -47.09375 32.15625 -46.34375 C 34.46875 -45.59375 36.378906 -44.253906 37.890625 -42.328125 C 39.703125 -44.203125 41.894531 -45.523438 44.46875 -46.296875 C 47.039062 -47.078125 49.785156 -47.46875 52.703125 -47.46875 C 56.597656 -47.46875 60 -46.921875 62.90625 -45.828125 C 65.820312 -44.742188 68.082031 -42.914062 69.6875 -40.34375 C 71.300781 -37.769531 72.109375 -34.195312 72.109375 -29.625 L 72.109375 0 L 57.453125 0 L 57.453125 -27.90625 C 57.453125 -29.882812 57.0625 -31.46875 56.28125 -32.65625 C 55.5 -33.851562 53.863281 -34.453125 51.375 -34.453125 C 48.875 -34.453125 47.234375 -33.851562 46.453125 -32.65625 C 45.679688 -31.46875 45.296875 -29.882812 45.296875 -27.90625 L 45.296875 0 L 30.640625 0 L 30.640625 -27.90625 C 30.640625 -30.300781 30.050781 -31.988281 28.875 -32.96875 C 27.707031 -33.957031 26.140625 -34.453125 24.171875 -34.453125 C 22.609375 -34.453125 20.757812 -34.21875 18.625 -33.75 Z M 18.625 0 "/></g></g></g><g fill="#000000" fill-opacity="1"><g transform="translate(360.787074, 97.21019)"><g><path d="M 50.984375 -20.890625 L 50.984375 -20.109375 L 18.234375 -20.109375 C 18.910156 -17.671875 20.195312 -15.617188 22.09375 -13.953125 C 23.988281 -12.285156 26.367188 -11.453125 29.234375 -11.453125 C 31.878906 -11.453125 34.359375 -11.867188 36.671875 -12.703125 C 38.984375 -13.535156 40.945312 -14.523438 42.5625 -15.671875 L 48.953125 -4.359375 C 46.566406 -2.910156 43.734375 -1.613281 40.453125 -0.46875 C 37.179688 0.675781 33.257812 1.25 28.6875 1.25 C 23.488281 1.25 18.96875 0.238281 15.125 -1.78125 C 11.28125 -3.8125 8.304688 -6.660156 6.203125 -10.328125 C 4.097656 -13.992188 3.046875 -18.21875 3.046875 -23 L 3.046875 -23.15625 C 3.046875 -27.9375 4.03125 -32.128906 6 -35.734375 C 7.976562 -39.347656 10.785156 -42.179688 14.421875 -44.234375 C 18.054688 -46.285156 22.316406 -47.3125 27.203125 -47.3125 C 32.085938 -47.3125 36.296875 -46.285156 39.828125 -44.234375 C 43.367188 -42.179688 46.113281 -39.179688 48.0625 -35.234375 C 50.007812 -31.285156 50.984375 -26.503906 50.984375 -20.890625 Z M 27.046875 -35.78125 C 24.816406 -35.78125 22.929688 -35.039062 21.390625 -33.5625 C 19.859375 -32.082031 18.804688 -30.25 18.234375 -28.0625 L 36.171875 -28.0625 C 35.753906 -30.351562 34.753906 -32.210938 33.171875 -33.640625 C 31.585938 -35.066406 29.546875 -35.78125 27.046875 -35.78125 Z M 27.046875 -35.78125 "/></g></g></g><g fill="#000000" fill-opacity="1"><g transform="translate(414.790511, 97.21019)"><g><path d="M 18.625 0 L 3.96875 0 L 3.96875 -63.21875 L 18.625 -63.21875 Z M 18.625 0 "/></g></g></g><g fill="#000000" fill-opacity="1"><g transform="translate(437.467285, 97.21019)"><g><path d="M 50.984375 -20.890625 L 50.984375 -20.109375 L 18.234375 -20.109375 C 18.910156 -17.671875 20.195312 -15.617188 22.09375 -13.953125 C 23.988281 -12.285156 26.367188 -11.453125 29.234375 -11.453125 C 31.878906 -11.453125 34.359375 -11.867188 36.671875 -12.703125 C 38.984375 -13.535156 40.945312 -14.523438 42.5625 -15.671875 L 48.953125 -4.359375 C 46.566406 -2.910156 43.734375 -1.613281 40.453125 -0.46875 C 37.179688 0.675781 33.257812 1.25 28.6875 1.25 C 23.488281 1.25 18.96875 0.238281 15.125 -1.78125 C 11.28125 -3.8125 8.304688 -6.660156 6.203125 -10.328125 C 4.097656 -13.992188 3.046875 -18.21875 3.046875 -23 L 3.046875 -23.15625 C 3.046875 -27.9375 4.03125 -32.128906 6 -35.734375 C 7.976562 -39.347656 10.785156 -42.179688 14.421875 -44.234375 C 18.054688 -46.285156 22.316406 -47.3125 27.203125 -47.3125 C 32.085938 -47.3125 36.296875 -46.285156 39.828125 -44.234375 C 43.367188 -42.179688 46.113281 -39.179688 48.0625 -35.234375 C 50.007812 -31.285156 50.984375 -26.503906 50.984375 -20.890625 Z M 27.046875 -35.78125 C 24.816406 -35.78125 22.929688 -35.039062 21.390625 -33.5625 C 19.859375 -32.082031 18.804688 -30.25 18.234375 -28.0625 L 36.171875 -28.0625 C 35.753906 -30.351562 34.753906 -32.210938 33.171875 -33.640625 C 31.585938 -35.066406 29.546875 -35.78125 27.046875 -35.78125 Z M 27.046875 -35.78125 "/></g></g></g><g fill="#000000" fill-opacity="1"><g transform="translate(491.470722, 97.21019)"><g><path d="M 28.609375 1.328125 C 23.566406 1.328125 19.125 0.273438 15.28125 -1.828125 C 11.4375 -3.929688 8.4375 -6.828125 6.28125 -10.515625 C 4.125 -14.210938 3.046875 -18.398438 3.046875 -23.078125 L 3.046875 -23.15625 C 3.046875 -27.882812 4.125 -32.066406 6.28125 -35.703125 C 8.4375 -39.335938 11.4375 -42.191406 15.28125 -44.265625 C 19.125 -46.347656 23.566406 -47.390625 28.609375 -47.390625 C 33.703125 -47.390625 38.15625 -46.347656 41.96875 -44.265625 C 45.789062 -42.191406 48.78125 -39.335938 50.9375 -35.703125 C 53.09375 -32.066406 54.171875 -27.882812 54.171875 -23.15625 L 54.171875 -23.078125 C 54.171875 -18.398438 53.09375 -14.210938 50.9375 -10.515625 C 48.78125 -6.828125 45.78125 -3.929688 41.9375 -1.828125 C 38.09375 0.273438 33.648438 1.328125 28.609375 1.328125 Z M 28.609375 -11.765625 C 31.878906 -11.765625 34.5 -12.851562 36.46875 -15.03125 C 38.445312 -17.21875 39.4375 -19.925781 39.4375 -23.15625 L 39.4375 -23.234375 C 39.4375 -26.453125 38.472656 -29.097656 36.546875 -31.171875 C 34.628906 -33.253906 31.984375 -34.296875 28.609375 -34.296875 C 25.285156 -34.296875 22.644531 -33.253906 20.6875 -31.171875 C 18.738281 -29.097656 17.765625 -26.453125 17.765625 -23.234375 L 17.765625 -23.15625 C 17.765625 -19.925781 18.753906 -17.21875 20.734375 -15.03125 C 22.710938 -12.851562 25.335938 -11.765625 28.609375 -11.765625 Z M 28.609375 -11.765625 "/></g></g></g><g fill="#000000" fill-opacity="1"><g transform="translate(548.669175, 97.21019)"><g><path d="M 18.625 0 L 3.96875 0 L 3.96875 -44.984375 C 6.519531 -45.453125 9.171875 -45.863281 11.921875 -46.21875 C 14.679688 -46.582031 17.253906 -46.867188 19.640625 -47.078125 C 22.035156 -47.285156 23.984375 -47.390625 25.484375 -47.390625 C 28.347656 -47.390625 31.078125 -47.117188 33.671875 -46.578125 C 36.273438 -46.035156 38.601562 -45.085938 40.65625 -43.734375 C 42.707031 -42.378906 44.316406 -40.554688 45.484375 -38.265625 C 46.648438 -35.984375 47.234375 -33.078125 47.234375 -29.546875 L 47.234375 0 L 32.578125 0 L 32.578125 -27.828125 C 32.578125 -30.171875 31.953125 -31.832031 30.703125 -32.8125 C 29.460938 -33.800781 27.539062 -34.296875 24.9375 -34.296875 C 23.226562 -34.296875 21.125 -34.085938 18.625 -33.671875 Z M 18.625 0 "/></g></g></g></svg>